<svg width="32" height="32" viewBox="0 0 32 32" fill="none" xmlns="http://www.w3.org/2000/svg">
<rect width="32" height="32" rx="16" fill="white"/>
<g clip-path="url(#clip0_149_178)">
<path d="M14.7097 20.3778C14.7097 20.3778 13.8956 24.3971 8.94951 24.9448L8.57302 23.0201C13.2541 24.1814 14.7097 20.3778 14.7097 20.3778Z" fill="#32BB4E"/>
<path d="M15.4454 15.3956C15.4454 15.3956 8.73329 14.6846 9.50859 10.6101C9.75559 9.31346 11.4541 8.65045 12.4273 8.89459C12.4273 8.89459 12.9313 7.12839 15.2736 7.46994C15.2736 7.46994 16.7519 7.6154 17.0799 9.24718C17.1804 9.77502 17.1361 10.3196 16.9515 10.8251C16.6026 11.8128 15.8421 14.1347 15.9206 15.4203C15.9206 15.4203 14.5426 13.9385 13.9122 12.4342C13.9123 12.4341 14.6281 14.6585 15.4454 15.3956Z" fill="#32BB4E"/>
<path d="M16.4053 14.9608C16.4053 14.9608 17.3607 8.41031 21.4901 9.30957C22.8037 9.59544 23.4217 11.2829 23.1401 12.2275C23.1401 12.2275 24.924 12.7832 24.4946 15.0649C24.4946 15.0649 24.2955 16.508 22.6207 16.7731C22.0793 16.8536 21.5259 16.792 21.0168 16.5944C20.0197 16.2176 17.6782 15.3925 16.3645 15.4254C16.3645 15.4254 17.9228 14.1267 19.4783 13.5607C19.4772 13.56 17.1848 14.1855 16.4053 14.9608Z" fill="#32BB4E"/>
<path d="M16.5533 15.9391C16.5533 15.9391 23.2654 16.6501 22.4902 20.7259C22.2432 22.0225 20.5447 22.6855 19.5715 22.4414C19.5715 22.4414 19.0676 24.2076 16.7252 23.866C16.7252 23.866 15.2469 23.7206 14.9189 22.0888C14.8186 21.561 14.8629 21.0166 15.0474 20.5111C15.3973 19.5218 16.158 17.1998 16.0795 15.9142C16.0795 15.9142 17.4575 17.3959 18.0897 18.9C18.0867 18.9015 17.3712 16.677 16.5533 15.9391Z" fill="#32BB4E"/>
<path d="M15.5941 16.3747C15.5941 16.3747 14.6383 22.9253 10.5102 22.0259C9.1969 21.74 8.57854 20.0527 8.8602 19.108C8.8602 19.108 7.07656 18.5522 7.50572 16.2706C7.50572 16.2706 7.70478 14.8275 9.38008 14.5623C9.92132 14.4818 10.4747 14.5434 10.9837 14.741C11.9807 15.1177 14.3222 15.9428 15.6356 15.9099C15.6356 15.9099 14.0773 17.2087 12.5218 17.7747C12.5217 17.7747 14.8143 17.15 15.5941 16.3747Z" fill="#32BB4E"/>
</g>
<defs>
<clipPath id="clip0_149_178">
<rect width="18" height="18" fill="white" transform="translate(7 7)"/>
</clipPath>
</defs>
</svg>
