<svg width="353" height="50" viewBox="0 0 353 50" fill="none" xmlns="http://www.w3.org/2000/svg">
<g clip-path="url(#clip0_364_2808)">
<path d="M21.3022 36.9637C21.3022 36.9637 19.0527 48.0691 5.38654 49.5823L4.34628 44.2644C17.2801 47.4729 21.3022 36.9637 21.3022 36.9637Z" fill="white"/>
<path d="M23.3347 23.198C23.3347 23.198 4.78882 21.2334 6.931 9.97542C7.61348 6.39284 12.3066 4.56093 14.9956 5.2355C14.9956 5.2355 16.388 0.355441 22.86 1.29914C22.86 1.29914 26.9444 1.70105 27.8507 6.20969C28.1285 7.66814 28.0061 9.17273 27.496 10.5696C26.532 13.2987 24.4307 19.7141 24.6476 23.2662C24.6476 23.2662 20.84 19.1721 19.0982 15.0155C19.0985 15.0152 21.0764 21.1613 23.3347 23.198Z" fill="white"/>
<path d="M25.9861 21.9961C25.9861 21.9961 28.6259 3.89687 40.0355 6.38153C43.6649 7.1714 45.3726 11.8338 44.5944 14.4439C44.5944 14.4439 49.5234 15.9793 48.3368 22.2837C48.3368 22.2837 47.7868 26.2711 43.1592 27.0034C41.6635 27.226 40.1342 27.0556 38.7276 26.5098C35.9727 25.4687 29.5032 23.189 25.8733 23.2798C25.8733 23.2798 30.1789 19.6913 34.4768 18.1275C34.4739 18.1256 28.1399 19.8538 25.9861 21.9961Z" fill="white"/>
<path d="M26.3956 24.6994C26.3956 24.6994 44.9413 26.6639 42.7995 37.9254C42.117 41.508 37.4239 43.3399 34.7349 42.6653C34.7349 42.6653 33.3425 47.5454 26.8705 46.6017C26.8705 46.6017 22.786 46.1997 21.8798 41.6911C21.6025 40.2329 21.725 38.7286 22.2348 37.332C23.2015 34.5986 25.3035 28.1826 25.0864 24.6305C25.0864 24.6305 28.894 28.7246 30.6406 32.8803C30.6323 32.8845 28.6553 26.7383 26.3956 24.6994Z" fill="white"/>
<path d="M23.7457 25.9033C23.7457 25.9033 21.1049 44.0028 9.69869 41.518C6.07009 40.7279 4.36155 36.0657 5.13978 33.4556C5.13978 33.4556 0.211527 31.92 1.39731 25.6158C1.39731 25.6158 1.94732 21.6284 6.57623 20.8958C8.07169 20.6733 9.60061 20.8436 11.007 21.3893C13.7617 22.4303 20.2314 24.7099 23.8603 24.6193C23.8603 24.6193 19.5547 28.2078 15.2568 29.7716C15.2566 29.7716 21.591 28.0455 23.7457 25.9033Z" fill="white"/>
</g>
<path d="M64.4713 39.3672V11.0807H72.3107L83.6253 29.5477H79.5035L90.4949 11.0807H98.3343L98.4151 39.3672H89.7271L89.6463 24.1733H91.0202L83.5041 36.8214H79.3015L71.4621 24.1733H73.1593V39.3672H64.4713ZM111.754 21.5871H124.362V28.4567H111.754V21.5871ZM112.401 32.1743H126.544V39.3672H103.026V11.0807H126.019V18.2736H112.401V32.1743ZM144.884 40.0137C142.594 40.0137 140.479 39.6635 138.54 38.9631C136.627 38.2357 134.957 37.212 133.529 35.892C132.128 34.572 131.037 33.0095 130.256 31.2045C129.474 29.3996 129.084 27.406 129.084 25.2239C129.084 23.0418 129.474 21.0483 130.256 19.2434C131.037 17.4384 132.141 15.8759 133.569 14.5559C134.997 13.2359 136.681 12.2256 138.62 11.5252C140.587 10.7978 142.742 10.4342 145.086 10.4342C147.888 10.4342 150.379 10.9056 152.562 11.8485C154.771 12.7914 156.589 14.1383 158.017 15.8894L151.915 21.2638C151.026 20.2401 150.056 19.4724 149.006 18.9605C147.982 18.4217 146.837 18.1523 145.571 18.1523C144.52 18.1523 143.564 18.314 142.702 18.6372C141.867 18.9605 141.153 19.432 140.56 20.0516C139.967 20.6712 139.509 21.412 139.186 22.2741C138.863 23.1361 138.701 24.1194 138.701 25.2239C138.701 26.2746 138.863 27.2444 139.186 28.1334C139.509 28.9955 139.967 29.7363 140.56 30.3559C141.153 30.9755 141.853 31.4604 142.661 31.8107C143.496 32.1339 144.426 32.2956 145.45 32.2956C146.527 32.2956 147.578 32.1205 148.601 31.7702C149.625 31.3931 150.716 30.76 151.875 29.871L157.209 36.4173C155.485 37.5757 153.518 38.4647 151.309 39.0843C149.1 39.7039 146.958 40.0137 144.884 40.0137ZM148.925 35.205V24.4562H157.209V36.4173L148.925 35.205ZM158.201 39.3672L170.566 11.0807H179.941L192.306 39.3672H182.446L173.314 15.6065H177.032L167.899 39.3672H158.201ZM165.555 34.4373L167.98 27.5677H180.992L183.416 34.4373H165.555ZM204.375 40.0137C202.004 40.0137 199.715 39.7443 197.506 39.2056C195.296 38.6668 193.478 37.9663 192.05 37.1043L195.121 30.1539C196.468 30.9351 197.963 31.5682 199.607 32.0531C201.277 32.5111 202.893 32.7401 204.456 32.7401C205.372 32.7401 206.086 32.6862 206.598 32.5784C207.136 32.4437 207.527 32.2686 207.769 32.0531C208.012 31.8107 208.133 31.5278 208.133 31.2045C208.133 30.6927 207.85 30.2886 207.285 29.9922C206.719 29.6959 205.965 29.4534 205.022 29.2649C204.106 29.0494 203.095 28.8338 201.991 28.6183C200.886 28.3759 199.768 28.0661 198.637 27.6889C197.532 27.3118 196.509 26.8134 195.566 26.1938C194.65 25.5742 193.909 24.766 193.343 23.7692C192.778 22.7455 192.495 21.4794 192.495 19.9707C192.495 18.2197 192.98 16.6302 193.95 15.2025C194.946 13.7477 196.414 12.5893 198.354 11.7273C200.321 10.8652 202.759 10.4342 205.668 10.4342C207.581 10.4342 209.467 10.6362 211.325 11.0403C213.184 11.4444 214.855 12.064 216.336 12.8991L213.467 19.8091C212.066 19.1087 210.706 18.5834 209.386 18.2331C208.093 17.8829 206.827 17.7078 205.587 17.7078C204.671 17.7078 203.944 17.7886 203.405 17.9503C202.866 18.1119 202.476 18.3274 202.233 18.5968C202.018 18.8662 201.91 19.1626 201.91 19.4858C201.91 19.9707 202.193 20.3614 202.759 20.6577C203.324 20.9271 204.065 21.1561 204.981 21.3447C205.924 21.5332 206.948 21.7353 208.052 21.9508C209.184 22.1663 210.302 22.4626 211.406 22.8398C212.511 23.217 213.521 23.7153 214.437 24.3349C215.38 24.9546 216.134 25.7627 216.7 26.7595C217.266 27.7563 217.549 28.9955 217.549 30.4772C217.549 32.2013 217.05 33.7907 216.053 35.2454C215.084 36.6732 213.629 37.8316 211.689 38.7206C209.75 39.5827 207.311 40.0137 204.375 40.0137ZM235.217 40.0137C232.927 40.0137 230.798 39.6501 228.832 38.9227C226.892 38.1953 225.208 37.1716 223.781 35.8516C222.353 34.5046 221.235 32.9286 220.427 31.1237C219.645 29.3188 219.255 27.3522 219.255 25.2239C219.255 23.0688 219.645 21.1022 220.427 19.3242C221.235 17.5192 222.353 15.9568 223.781 14.6367C225.208 13.2897 226.892 12.2526 228.832 11.5252C230.798 10.7978 232.927 10.4342 235.217 10.4342C237.533 10.4342 239.662 10.7978 241.601 11.5252C243.541 12.2526 245.225 13.2897 246.652 14.6367C248.08 15.9568 249.185 17.5192 249.966 19.3242C250.774 21.1022 251.178 23.0688 251.178 25.2239C251.178 27.3522 250.774 29.3188 249.966 31.1237C249.185 32.9286 248.08 34.5046 246.652 35.8516C245.225 37.1716 243.541 38.1953 241.601 38.9227C239.662 39.6501 237.533 40.0137 235.217 40.0137ZM235.217 32.2956C236.106 32.2956 236.927 32.1339 237.681 31.8107C238.463 31.4874 239.136 31.0294 239.702 30.4367C240.295 29.8171 240.753 29.0763 241.076 28.2142C241.399 27.3252 241.561 26.3285 241.561 25.2239C241.561 24.1194 241.399 23.1361 241.076 22.2741C240.753 21.3851 240.295 20.6442 239.702 20.0516C239.136 19.432 238.463 18.9605 237.681 18.6372C236.927 18.314 236.106 18.1523 235.217 18.1523C234.327 18.1523 233.492 18.314 232.711 18.6372C231.957 18.9605 231.283 19.432 230.691 20.0516C230.125 20.6442 229.68 21.3851 229.357 22.2741C229.034 23.1361 228.872 24.1194 228.872 25.2239C228.872 26.3285 229.034 27.3252 229.357 28.2142C229.68 29.0763 230.125 29.8171 230.691 30.4367C231.283 31.0294 231.957 31.4874 232.711 31.8107C233.492 32.1339 234.327 32.2956 235.217 32.2956ZM254.639 39.3672V11.0807H262.479L276.865 28.2951H273.228V11.0807H282.522V39.3672H274.682L260.297 22.1528H263.934V39.3672H254.639ZM305.463 11.0807H314.999V39.3672H305.463V11.0807ZM296.653 39.3672H287.117V11.0807H296.653V39.3672ZM306.109 28.9416H296.007V21.1022H306.109V28.9416ZM334.424 40.0137C332.135 40.0137 330.006 39.6501 328.04 38.9227C326.1 38.1953 324.416 37.1716 322.989 35.8516C321.561 34.5046 320.443 32.9286 319.635 31.1237C318.853 29.3188 318.463 27.3522 318.463 25.2239C318.463 23.0688 318.853 21.1022 319.635 19.3242C320.443 17.5192 321.561 15.9568 322.989 14.6367C324.416 13.2897 326.1 12.2526 328.04 11.5252C330.006 10.7978 332.135 10.4342 334.424 10.4342C336.741 10.4342 338.869 10.7978 340.809 11.5252C342.749 12.2526 344.432 13.2897 345.86 14.6367C347.288 15.9568 348.393 17.5192 349.174 19.3242C349.982 21.1022 350.386 23.0688 350.386 25.2239C350.386 27.3522 349.982 29.3188 349.174 31.1237C348.393 32.9286 347.288 34.5046 345.86 35.8516C344.432 37.1716 342.749 38.1953 340.809 38.9227C338.869 39.6501 336.741 40.0137 334.424 40.0137ZM334.424 32.2956C335.313 32.2956 336.135 32.1339 336.889 31.8107C337.671 31.4874 338.344 31.0294 338.91 30.4367C339.502 29.8171 339.96 29.0763 340.284 28.2142C340.607 27.3252 340.769 26.3285 340.769 25.2239C340.769 24.1194 340.607 23.1361 340.284 22.2741C339.96 21.3851 339.502 20.6442 338.91 20.0516C338.344 19.432 337.671 18.9605 336.889 18.6372C336.135 18.314 335.313 18.1523 334.424 18.1523C333.535 18.1523 332.7 18.314 331.919 18.6372C331.165 18.9605 330.491 19.432 329.899 20.0516C329.333 20.6442 328.888 21.3851 328.565 22.2741C328.242 23.1361 328.08 24.1194 328.08 25.2239C328.08 26.3285 328.242 27.3252 328.565 28.2142C328.888 29.0763 329.333 29.8171 329.899 30.4367C330.491 31.0294 331.165 31.4874 331.919 31.8107C332.7 32.1339 333.535 32.2956 334.424 32.2956Z" fill="white"/>
<defs>
<clipPath id="clip0_364_2808">
<rect width="49.7345" height="49.7345" fill="white"/>
</clipPath>
</defs>
</svg>
