<svg width="227" height="32" viewBox="0 0 227 32" fill="none" xmlns="http://www.w3.org/2000/svg">
<g clip-path="url(#clip0_63_3)">
<path d="M13.7058 23.7829C13.7058 23.7829 12.2584 30.9283 3.46537 31.9019L2.79605 28.4803C11.1179 30.5447 13.7058 23.7829 13.7058 23.7829Z" fill="#0B5EBF"/>
<path d="M15.014 14.9259C15.014 14.9259 3.08129 13.6618 4.4596 6.41825C4.89873 4.11315 7.91835 2.93447 9.6485 3.3685C9.6485 3.3685 10.5444 0.228589 14.7086 0.835782C14.7086 0.835782 17.3366 1.09437 17.9197 3.99532C18.0984 4.9337 18.0197 5.90178 17.6915 6.80055C17.0712 8.55649 15.7192 12.6842 15.8588 14.9697C15.8588 14.9697 13.4089 12.3355 12.2882 9.66109C12.2884 9.66095 13.561 13.6154 15.014 14.9259Z" fill="#0B5EBF"/>
<path d="M16.7197 14.1526C16.7197 14.1526 18.4182 2.50725 25.7593 4.10592C28.0945 4.61414 29.1933 7.61398 28.6926 9.29336C28.6926 9.29336 31.864 10.2813 31.1006 14.3376C31.1006 14.3376 30.7467 16.9032 27.7692 17.3744C26.8068 17.5176 25.8229 17.408 24.9178 17.0568C23.1452 16.3869 18.9827 14.9201 16.6471 14.9786C16.6471 14.9786 19.4174 12.6696 22.1828 11.6635C22.1809 11.6622 18.1055 12.7742 16.7197 14.1526Z" fill="#0B5EBF"/>
<path d="M16.9828 15.892C16.9828 15.892 28.9154 17.1559 27.5373 24.4018C27.0982 26.7069 24.0786 27.8856 22.3484 27.4515C22.3484 27.4515 21.4526 30.5914 17.2884 29.9843C17.2884 29.9843 14.6603 29.7257 14.0772 26.8247C13.8988 25.8865 13.9776 24.9186 14.3057 24.02C14.9277 22.2613 16.2801 18.1331 16.1405 15.8476C16.1405 15.8476 18.5903 18.4818 19.7141 21.1557C19.7088 21.1584 18.4367 17.2038 16.9828 15.892Z" fill="#0B5EBF"/>
<path d="M15.2784 16.6665C15.2784 16.6665 13.5793 28.312 6.2403 26.7132C3.9056 26.2049 2.8063 23.2052 3.30702 21.5258C3.30702 21.5258 0.1361 20.5377 0.899052 16.4815C0.899052 16.4815 1.25294 13.916 4.23126 13.4446C5.19346 13.3014 6.17719 13.411 7.08209 13.7621C8.85453 14.4319 13.0172 15.8987 15.3521 15.8403C15.3521 15.8403 12.5818 18.1493 9.81649 19.1554C9.81638 19.1554 13.892 18.0448 15.2784 16.6665Z" fill="#0B5EBF"/>
</g>
<path d="M41.482 25V6.8H46.526L53.806 18.682H51.154L58.226 6.8H63.27L63.322 25H57.732L57.68 15.224H58.564L53.728 23.362H51.024L45.98 15.224H47.072V25H41.482ZM71.9046 13.56H80.0166V17.98H71.9046V13.56ZM72.3206 20.372H81.4206V25H66.2886V6.8H81.0826V11.428H72.3206V20.372ZM93.2208 25.416C91.7474 25.416 90.3868 25.1907 89.1388 24.74C87.9081 24.272 86.8334 23.6133 85.9148 22.764C85.0134 21.9147 84.3114 20.9093 83.8088 19.748C83.3061 18.5867 83.0548 17.304 83.0548 15.9C83.0548 14.496 83.3061 13.2133 83.8088 12.052C84.3114 10.8907 85.0221 9.88533 85.9408 9.036C86.8594 8.18667 87.9428 7.53667 89.1908 7.086C90.4561 6.618 91.8428 6.384 93.3508 6.384C95.1534 6.384 96.7568 6.68733 98.1608 7.294C99.5821 7.90067 100.752 8.76733 101.671 9.894L97.7448 13.352C97.1728 12.6933 96.5488 12.1993 95.8728 11.87C95.2141 11.5233 94.4774 11.35 93.6628 11.35C92.9868 11.35 92.3714 11.454 91.8168 11.662C91.2794 11.87 90.8201 12.1733 90.4388 12.572C90.0574 12.9707 89.7628 13.4473 89.5548 14.002C89.3468 14.5567 89.2428 15.1893 89.2428 15.9C89.2428 16.576 89.3468 17.2 89.5548 17.772C89.7628 18.3267 90.0574 18.8033 90.4388 19.202C90.8201 19.6007 91.2708 19.9127 91.7908 20.138C92.3281 20.346 92.9261 20.45 93.5848 20.45C94.2781 20.45 94.9541 20.3373 95.6128 20.112C96.2714 19.8693 96.9734 19.462 97.7188 18.89L101.151 23.102C100.041 23.8473 98.7761 24.4193 97.3548 24.818C95.9334 25.2167 94.5554 25.416 93.2208 25.416ZM95.8208 22.322V15.406H101.151V23.102L95.8208 22.322ZM101.789 25L109.745 6.8H115.777L123.733 25H117.389L111.513 9.712H113.905L108.029 25H101.789ZM106.521 21.828L108.081 17.408H116.453L118.013 21.828H106.521ZM131.498 25.416C129.973 25.416 128.5 25.2427 127.078 24.896C125.657 24.5493 124.487 24.0987 123.568 23.544L125.544 19.072C126.411 19.5747 127.373 19.982 128.43 20.294C129.505 20.5887 130.545 20.736 131.55 20.736C132.14 20.736 132.599 20.7013 132.928 20.632C133.275 20.5453 133.526 20.4327 133.682 20.294C133.838 20.138 133.916 19.956 133.916 19.748C133.916 19.4187 133.734 19.1587 133.37 18.968C133.006 18.7773 132.521 18.6213 131.914 18.5C131.325 18.3613 130.675 18.2227 129.964 18.084C129.254 17.928 128.534 17.7287 127.806 17.486C127.096 17.2433 126.437 16.9227 125.83 16.524C125.241 16.1253 124.764 15.6053 124.4 14.964C124.036 14.3053 123.854 13.4907 123.854 12.52C123.854 11.3933 124.166 10.3707 124.79 9.452C125.432 8.516 126.376 7.77067 127.624 7.216C128.89 6.66133 130.458 6.384 132.33 6.384C133.561 6.384 134.774 6.514 135.97 6.774C137.166 7.034 138.241 7.43267 139.194 7.97L137.348 12.416C136.447 11.9653 135.572 11.6273 134.722 11.402C133.89 11.1767 133.076 11.064 132.278 11.064C131.689 11.064 131.221 11.116 130.874 11.22C130.528 11.324 130.276 11.4627 130.12 11.636C129.982 11.8093 129.912 12 129.912 12.208C129.912 12.52 130.094 12.7713 130.458 12.962C130.822 13.1353 131.299 13.2827 131.888 13.404C132.495 13.5253 133.154 13.6553 133.864 13.794C134.592 13.9327 135.312 14.1233 136.022 14.366C136.733 14.6087 137.383 14.9293 137.972 15.328C138.579 15.7267 139.064 16.2467 139.428 16.888C139.792 17.5293 139.974 18.3267 139.974 19.28C139.974 20.3893 139.654 21.412 139.012 22.348C138.388 23.2667 137.452 24.012 136.204 24.584C134.956 25.1387 133.388 25.416 131.498 25.416ZM151.342 25.416C149.869 25.416 148.5 25.182 147.234 24.714C145.986 24.246 144.903 23.5873 143.984 22.738C143.066 21.8713 142.346 20.8573 141.826 19.696C141.324 18.5347 141.072 17.2693 141.072 15.9C141.072 14.5133 141.324 13.248 141.826 12.104C142.346 10.9427 143.066 9.93733 143.984 9.088C144.903 8.22133 145.986 7.554 147.234 7.086C148.5 6.618 149.869 6.384 151.342 6.384C152.833 6.384 154.202 6.618 155.45 7.086C156.698 7.554 157.782 8.22133 158.7 9.088C159.619 9.93733 160.33 10.9427 160.832 12.104C161.352 13.248 161.612 14.5133 161.612 15.9C161.612 17.2693 161.352 18.5347 160.832 19.696C160.33 20.8573 159.619 21.8713 158.7 22.738C157.782 23.5873 156.698 24.246 155.45 24.714C154.202 25.182 152.833 25.416 151.342 25.416ZM151.342 20.45C151.914 20.45 152.443 20.346 152.928 20.138C153.431 19.93 153.864 19.6353 154.228 19.254C154.61 18.8553 154.904 18.3787 155.112 17.824C155.32 17.252 155.424 16.6107 155.424 15.9C155.424 15.1893 155.32 14.5567 155.112 14.002C154.904 13.43 154.61 12.9533 154.228 12.572C153.864 12.1733 153.431 11.87 152.928 11.662C152.443 11.454 151.914 11.35 151.342 11.35C150.77 11.35 150.233 11.454 149.73 11.662C149.245 11.87 148.812 12.1733 148.43 12.572C148.066 12.9533 147.78 13.43 147.572 14.002C147.364 14.5567 147.26 15.1893 147.26 15.9C147.26 16.6107 147.364 17.252 147.572 17.824C147.78 18.3787 148.066 18.8553 148.43 19.254C148.812 19.6353 149.245 19.93 149.73 20.138C150.233 20.346 150.77 20.45 151.342 20.45ZM163.839 25V6.8H168.883L178.139 17.876H175.799V6.8H181.779V25H176.735L167.479 13.924H169.819V25H163.839ZM196.54 6.8H202.676V25H196.54V6.8ZM190.872 25H184.736V6.8H190.872V25ZM196.956 18.292H190.456V13.248H196.956V18.292ZM215.174 25.416C213.701 25.416 212.332 25.182 211.066 24.714C209.818 24.246 208.735 23.5873 207.816 22.738C206.898 21.8713 206.178 20.8573 205.658 19.696C205.156 18.5347 204.904 17.2693 204.904 15.9C204.904 14.5133 205.156 13.248 205.658 12.104C206.178 10.9427 206.898 9.93733 207.816 9.088C208.735 8.22133 209.818 7.554 211.066 7.086C212.332 6.618 213.701 6.384 215.174 6.384C216.665 6.384 218.034 6.618 219.282 7.086C220.53 7.554 221.614 8.22133 222.532 9.088C223.451 9.93733 224.162 10.9427 224.664 12.104C225.184 13.248 225.444 14.5133 225.444 15.9C225.444 17.2693 225.184 18.5347 224.664 19.696C224.162 20.8573 223.451 21.8713 222.532 22.738C221.614 23.5873 220.53 24.246 219.282 24.714C218.034 25.182 216.665 25.416 215.174 25.416ZM215.174 20.45C215.746 20.45 216.275 20.346 216.76 20.138C217.263 19.93 217.696 19.6353 218.06 19.254C218.442 18.8553 218.736 18.3787 218.944 17.824C219.152 17.252 219.256 16.6107 219.256 15.9C219.256 15.1893 219.152 14.5567 218.944 14.002C218.736 13.43 218.442 12.9533 218.06 12.572C217.696 12.1733 217.263 11.87 216.76 11.662C216.275 11.454 215.746 11.35 215.174 11.35C214.602 11.35 214.065 11.454 213.562 11.662C213.077 11.87 212.644 12.1733 212.262 12.572C211.898 12.9533 211.612 13.43 211.404 14.002C211.196 14.5567 211.092 15.1893 211.092 15.9C211.092 16.6107 211.196 17.252 211.404 17.824C211.612 18.3787 211.898 18.8553 212.262 19.254C212.644 19.6353 213.077 19.93 213.562 20.138C214.065 20.346 214.602 20.45 215.174 20.45Z" fill="#0B5EBF"/>
<defs>
<clipPath id="clip0_63_3">
<rect width="32" height="32" fill="white"/>
</clipPath>
</defs>
</svg>
