<svg width="24" height="24" viewBox="0 0 24 24" fill="none" xmlns="http://www.w3.org/2000/svg">
<path d="M23.0111 5.84033C22.4735 4.43089 21.3019 3.29023 19.8752 2.794C18.2693 2.23574 16.4532 2.48385 15.1368 3.44186C13.9376 4.31372 13.2553 5.74729 13.3208 7.1843C12.5006 7.02923 11.6494 7.012 10.8224 7.1395C10.8775 5.55775 10.0194 4.00357 8.59275 3.17651C6.26321 1.82221 3.04457 2.59757 1.56965 4.86509C0.666781 6.25386 0.590968 8.05271 1.37667 9.44837C2.0969 10.7269 3.46844 11.5884 5.02262 11.7676C4.84342 11.7469 4.44713 13.6285 4.42645 13.8214C3.90954 18.2014 8.03794 21.899 12.2594 21.8025C14.4959 21.7509 16.5394 20.5137 17.873 18.7597C18.5381 17.8878 19.0619 16.8781 19.2859 15.7995C19.4169 15.1585 19.4444 14.5038 19.379 13.8525C19.3583 13.6422 19.0619 11.7779 18.8621 11.7883C20.5162 11.678 22.0187 10.782 22.7837 9.4208C23.3902 8.33184 23.4729 7.06024 23.0111 5.84033Z" fill="#FF0000"/>
</svg>
